<?xml version="1.0" encoding="UTF-8"?>
<svg width="236px" height="144px" viewBox="0 0 236 144" version="1.1" xmlns="http://www.w3.org/2000/svg" xmlns:xlink="http://www.w3.org/1999/xlink">
    <title>neon</title>
    <defs>
        <path d="M13,3.99512662 L130.761905,3.99512662 C137.941606,3.99512662 143.761905,9.81542487 143.761905,16.9951266 L143.761905,41.0338006 C143.761905,48.2135024 137.941606,54.0338006 130.761905,54.0338006 L13,54.0338006 C5.82029825,54.0338006 0,48.2135024 0,41.0338006 L0,16.9951266 C0,9.81542487 5.82029825,3.99512662 13,3.99512662 Z" id="path-1"></path>
        <filter x="-49.0%" y="-140.9%" width="198.1%" height="381.8%" filterUnits="objectBoundingBox" id="filter-2">
            <feMorphology radius="1.5" operator="dilate" in="SourceAlpha" result="shadowSpreadOuter1"></feMorphology>
            <feOffset dx="0" dy="0" in="shadowSpreadOuter1" result="shadowOffsetOuter1"></feOffset>
            <feMorphology radius="1.5" operator="erode" in="SourceAlpha" result="shadowInner"></feMorphology>
            <feOffset dx="0" dy="0" in="shadowInner" result="shadowInner"></feOffset>
            <feComposite in="shadowOffsetOuter1" in2="shadowInner" operator="out" result="shadowOffsetOuter1"></feComposite>
            <feGaussianBlur stdDeviation="20" in="shadowOffsetOuter1" result="shadowBlurOuter1"></feGaussianBlur>
            <feColorMatrix values="0 0 0 0 1   0 0 0 0 0   0 0 0 0 0.61052229  0 0 0 0.168651661 0" type="matrix" in="shadowBlurOuter1" result="shadowMatrixOuter1"></feColorMatrix>
            <feMorphology radius="1.5" operator="dilate" in="SourceAlpha" result="shadowSpreadOuter2"></feMorphology>
            <feOffset dx="0" dy="0" in="shadowSpreadOuter2" result="shadowOffsetOuter2"></feOffset>
            <feMorphology radius="1.5" operator="erode" in="SourceAlpha" result="shadowInner"></feMorphology>
            <feOffset dx="0" dy="0" in="shadowInner" result="shadowInner"></feOffset>
            <feComposite in="shadowOffsetOuter2" in2="shadowInner" operator="out" result="shadowOffsetOuter2"></feComposite>
            <feGaussianBlur stdDeviation="2" in="shadowOffsetOuter2" result="shadowBlurOuter2"></feGaussianBlur>
            <feColorMatrix values="0 0 0 0 1   0 0 0 0 0   0 0 0 0 0.067854021  0 0 0 0.556463068 0" type="matrix" in="shadowBlurOuter2" result="shadowMatrixOuter2"></feColorMatrix>
            <feMorphology radius="6" operator="dilate" in="SourceAlpha" result="shadowSpreadOuter3"></feMorphology>
            <feOffset dx="0" dy="0" in="shadowSpreadOuter3" result="shadowOffsetOuter3"></feOffset>
            <feMorphology radius="6" operator="erode" in="SourceAlpha" result="shadowInner"></feMorphology>
            <feOffset dx="0" dy="0" in="shadowInner" result="shadowInner"></feOffset>
            <feComposite in="shadowOffsetOuter3" in2="shadowInner" operator="out" result="shadowOffsetOuter3"></feComposite>
            <feGaussianBlur stdDeviation="20" in="shadowOffsetOuter3" result="shadowBlurOuter3"></feGaussianBlur>
            <feColorMatrix values="0 0 0 0 1   0 0 0 0 0   0 0 0 0 0.61052229  0 0 0 1 0" type="matrix" in="shadowBlurOuter3" result="shadowMatrixOuter3"></feColorMatrix>
            <feMerge>
                <feMergeNode in="shadowMatrixOuter1"></feMergeNode>
                <feMergeNode in="shadowMatrixOuter2"></feMergeNode>
                <feMergeNode in="shadowMatrixOuter3"></feMergeNode>
            </feMerge>
        </filter>
        <linearGradient x1="185.772331%" y1="43.9681116%" x2="15.3418935%" y2="55.7639115%" id="linearGradient-3">
            <stop stop-color="#FFD78D" offset="0%"></stop>
            <stop stop-color="#FFD58D" offset="0%"></stop>
            <stop stop-color="#FF5493" offset="100%"></stop>
        </linearGradient>
        <path d="M27.3941986,45.2343629 C30.0364682,45.1420928 32.4287098,44.6849539 34.5709235,43.8629462 C36.7131372,43.0409384 38.5346159,41.9978932 40.0353595,40.7338105 C41.5361032,39.4697277 42.678061,38.0515687 43.461233,36.4793333 C44.244405,34.9070979 44.6078169,33.3141803 44.5514687,31.7005805 C44.5261121,30.9744606 44.3710591,30.293259 44.0863099,29.6569757 C43.8015607,29.0206924 43.4060526,28.3933255 42.8997855,27.774875 C42.3935185,27.1564245 41.771274,26.5420241 41.0330521,25.9316737 C40.4178671,25.4230483 39.7357823,24.9062411 38.9867976,24.3812521 L38.5293789,24.0652769 L31.2669306,19.0783901 C30.5844162,18.6175538 29.9838145,18.1891976 29.4651253,17.7933214 C28.9464362,17.3974453 28.5039128,17.0140553 28.1375552,16.6431515 C27.7711975,16.2722477 27.4905624,15.8983505 27.2956497,15.5214597 C27.1007371,15.1445689 26.9955329,14.7342535 26.9800371,14.2905136 C26.9574979,13.6450737 27.15161,12.9870195 27.5623735,12.316351 C27.973137,11.6456826 28.5263231,11.0053811 29.2219318,10.3954467 C29.9175405,9.78551231 30.7254929,9.21204396 31.6457889,8.67504167 C32.566085,8.13803938 33.5191013,7.67057556 34.5048378,7.27265019 C35.4905744,6.87472483 36.4789522,6.55243696 37.4699714,6.30578657 C38.4609905,6.05913618 39.3800701,5.9210196 40.2272099,5.89143683 C40.6709499,5.87594109 41.0516026,5.93332948 41.369168,6.06360201 C41.6867334,6.19387453 41.8536162,6.49096576 41.8698162,6.9548757 C41.8867207,7.43895563 41.6772409,7.94608702 41.241377,8.47626986 C40.8677793,8.9307123 40.4433038,9.309038 39.9679505,9.61124695 L39.7260341,9.75600837 C38.9938312,10.1854693 38.4711882,10.6883907 38.1581051,11.2647724 C37.845022,11.8411541 37.6983414,12.4117249 37.7180632,12.9764849 C37.7413068,13.6420948 37.9632569,14.2149387 38.3839135,14.6950166 C38.8045701,15.1750945 39.3577883,15.4031594 40.0435682,15.3792115 C40.7091781,15.3559679 41.4257893,15.0583162 42.1934016,14.4862566 C43.9268046,13.2342438 45.2032131,11.9073139 46.0226271,10.505467 C46.842041,9.10362006 47.2253348,7.6463217 47.1725084,6.13357191 C47.1358821,5.08473206 46.928051,4.19333026 46.549015,3.45936652 C46.1699791,2.72540278 45.65955,2.1323409 45.0177278,1.68018088 C44.3759056,1.22802085 43.6325932,0.905621151 42.7877904,0.712981783 C41.9429876,0.520342415 41.0264213,0.44127935 40.0380915,0.47579259 C38.7270417,0.521575458 37.3465174,0.746487121 35.8965188,1.15052758 C34.4465202,1.55456804 33.0113609,2.0944038 31.591041,2.77003487 C30.1707211,3.44566593 28.8153134,4.24524643 27.5248179,5.16877635 C26.2343224,6.09230627 25.1027857,7.08601495 24.1302078,8.1499024 C23.1576299,9.21378984 22.3942596,10.3410527 21.8400971,11.5316909 C21.2859346,12.7223291 21.0303361,13.9328331 21.0733016,15.1632029 C21.1197888,16.4944228 21.5376601,17.7621871 22.3269154,18.9664959 C23.1161708,20.1708047 24.290417,21.4121558 25.849654,22.6905492 L26.0629061,22.8556241 L26.0629061,22.8556241 L26.9467316,23.508931 L26.9467316,23.508931 L28.1346748,24.3676842 L28.1346748,24.3676842 L28.593345,24.6916909 L28.593345,24.6916909 L29.0993451,25.0383622 L29.0993451,25.0383622 L29.6526751,25.4076981 L29.6526751,25.4076981 L30.5714135,26.004198 L30.5714135,26.004198 L31.2430682,26.4301953 L31.2430682,26.4301953 L32.3392937,27.1116873 L32.3392937,27.1116873 L33.5420114,27.8441746 C34.882644,28.6455316 35.8692451,29.4289598 36.5018147,30.1944591 C37.1343844,30.9599584 37.4633475,31.7057681 37.4887042,32.431888 C37.5225131,33.4000478 37.2765193,34.3072975 36.7507228,35.1536371 C36.2249263,35.9999767 35.5036409,36.7420726 34.5868665,37.3799248 C33.6700922,38.0177771 32.5922461,38.5249406 31.353328,38.9014154 C30.11441,39.2778902 28.7990861,39.4904277 27.4073563,39.539028 C26.0559665,39.5862195 24.8982407,39.5408212 23.9341788,39.4028329 C22.970117,39.2648447 22.1804295,39.0601833 21.5651165,38.7888489 C20.9498035,38.5175145 20.4942657,38.1951628 20.198503,37.8217938 C19.9027404,37.4484248 19.7474633,37.0499553 19.732672,36.6263854 C19.7094284,35.9607754 20.0087286,35.2788534 20.6305727,34.5806192 C21.2524169,33.8823851 22.1196466,33.2715062 23.232262,32.7479826 C23.7092984,32.5293781 24.0960981,32.3290708 24.3926611,32.1470605 C24.689224,31.9650503 24.9249248,31.7750681 25.0997635,31.577114 C25.2746021,31.3791598 25.3884025,31.1681912 25.4411646,30.9442082 C25.4939267,30.7202252 25.5150252,30.4569587 25.5044599,30.1544087 C25.4833293,29.5493088 25.3283404,29.0145158 25.0394932,28.5500296 C24.750646,28.0855434 24.3137574,27.8635134 23.7288275,27.8839396 C22.1689504,28.322109 20.7461653,28.9271451 19.4604721,29.6990479 C18.174779,30.4709506 17.07918,31.3371881 16.1736754,32.2977603 C15.2681707,33.2583326 14.5763879,34.2669766 14.0983271,35.3236924 C13.6202663,36.3804083 13.3988447,37.4130161 13.4340623,38.421516 C13.4678712,39.3896758 13.7522202,40.3036488 14.2871095,41.1634349 C14.8219987,42.023221 15.6559161,42.7715918 16.7888618,43.4085473 C17.9218074,44.0455029 19.357415,44.5305271 21.0956846,44.86362 C22.8339543,45.1967128 24.9334589,45.3202938 27.3941986,45.2343629 Z M62.5255312,44.1590091 C63.6348811,44.1202698 64.7623999,43.87895 65.9080877,43.4350499 C67.0537755,42.9911497 68.1995753,42.4058834 69.3454872,41.6792511 C70.4913991,40.9526188 71.6237042,40.1254887 72.7424026,39.1978608 C73.8611009,38.2702329 74.9582206,37.3029693 76.0337615,36.2960701 C76.7206939,35.7268278 77.2008839,35.1648052 77.4743313,34.6100022 C77.7477788,34.0551991 77.8771068,33.5660127 77.8623154,33.1424427 C77.8461153,32.6785328 77.7071984,32.3148325 77.4455647,32.051342 C77.183931,31.7878514 76.8715842,31.6624453 76.5085242,31.6751236 C76.3269943,31.6814628 76.136788,31.7284941 75.9379054,31.8162176 C75.7390229,31.9039411 75.551634,32.0316525 75.3757388,32.1993516 L75.0212325,32.5533565 L75.0212325,32.5533565 L74.1749038,33.3772316 L74.1749038,33.3772316 C73.7059674,33.827791 73.1921768,34.2950626 72.633532,34.7790466 C72.0748872,35.2630306 71.4856352,35.7379861 70.865776,36.2039131 C70.2459168,36.6698401 69.6244729,37.0903846 69.0014441,37.4655467 C68.3784154,37.8407087 67.7579639,38.1450996 67.1400897,38.3787195 C66.5222155,38.6123394 65.9409834,38.7386581 65.3963935,38.7576756 C64.9728235,38.772467 64.6231302,38.7341921 64.3473135,38.6428508 C64.0714967,38.5515096 63.9265449,38.304139 63.9124578,37.900739 L63.9141267,37.840097 L63.9141267,37.840097 L63.9233592,37.7791908 C63.9320355,37.7384986 63.9356693,37.6979825 63.9342606,37.6576426 C63.9867665,36.8480253 64.167448,36.0945158 64.476305,35.3971141 C64.785162,34.6997123 65.1554094,34.0254101 65.5870472,33.3742072 C66.0186851,32.7230044 66.4758876,32.0810062 66.9586548,31.4482124 C67.441422,30.8154187 67.8827927,30.1537787 68.2827668,29.4632924 C68.682741,28.7728061 69.005669,28.0446212 69.2515507,27.2787375 C69.4974325,26.5128539 69.6045255,25.6760871 69.5728296,24.7684373 C69.5488817,24.0826574 69.3975266,23.5073482 69.1187643,23.0425099 C68.8400021,22.5776715 68.4739967,22.2168527 68.020748,21.9600535 C67.5674993,21.7032543 67.0462969,21.5245578 66.4571409,21.423964 C65.8679849,21.3233702 65.2506869,21.284343 64.605247,21.3068822 C63.5160671,21.3449172 62.533196,21.5357479 61.6566336,21.8793744 C60.7800712,22.2230008 59.9770972,22.6498845 59.2477118,23.1600254 C58.5183263,23.6701664 57.8461692,24.2287954 57.2312405,24.8359124 L56.3347923,25.7305359 C56.0446245,26.0233931 55.7631051,26.3108996 55.4902338,26.5930555 C56.3450573,25.0486099 57.1590126,23.4904455 57.9320995,21.9185623 C58.4474908,20.8706402 58.9604845,19.8183141 59.4710806,18.761584 L60.2351764,17.1731859 C60.997474,15.5814849 61.7601238,13.9998689 62.5231258,12.4283378 C63.2861278,10.8568068 64.0849555,9.29917066 64.919609,7.7554294 C65.1871975,7.32199853 65.4232985,6.8543267 65.6279119,6.3524139 C65.8325252,5.8505011 65.927084,5.37767473 65.9115883,4.93393479 C65.8946838,4.44985486 65.7089757,4.04739941 65.354464,3.72656843 C64.9999522,3.40573746 64.3789564,3.26081772 63.4914765,3.2918092 C63.1284166,3.30448753 62.7672936,3.37263335 62.4081076,3.49624667 C62.0489216,3.61985999 61.7113143,3.78310895 61.3952856,3.98599355 C61.079257,4.18887815 60.7994064,4.41574264 60.5557336,4.666587 C60.3607954,4.86726249 60.2080362,5.07292733 60.097456,5.28358151 L50.7239673,25.426654 L49.9573613,27.1253949 L49.9573613,27.1253949 L48.7550938,29.7320324 L48.7550938,29.7320324 L47.7252659,31.9381058 C47.1332286,33.2007478 46.546586,34.4732986 45.9653381,35.7557583 L45.2546869,37.3393707 L45.2546869,37.3393707 L44.8216613,38.3225964 L44.8216613,38.3225964 L44.4212292,39.2478093 C44.0842303,40.0067776 43.8440313,40.6462466 43.7006323,41.1662163 C43.5572333,41.686186 43.4936338,42.1781259 43.5098339,42.6420358 C43.5316688,43.2673057 43.7414209,43.7799918 44.13909,44.1800941 C44.5367592,44.5801963 45.0885687,44.7679213 45.7945186,44.743269 C46.2382585,44.7277732 46.6619405,44.5716158 47.0655645,44.2747966 C47.4691885,43.9779774 47.849473,43.5910976 48.2064178,43.1141572 C48.5633627,42.6372167 48.9028909,42.0952521 49.2250025,41.4882632 C49.5471141,40.8812743 49.853922,40.2697711 50.1454264,39.6537538 L50.9912694,37.8521407 C51.2636604,37.2670827 51.5332979,36.7477532 51.8001822,36.2941524 C52.3909388,35.2839876 53.0305357,34.2266795 53.7189728,33.1222279 C54.4074099,32.0177764 55.1593504,30.9969344 55.9747945,30.0597017 C56.7902385,29.1224691 57.6919974,28.343779 58.680071,27.7236315 C59.6681447,27.103484 60.7571964,26.7726318 61.9472263,26.7310751 C62.2901162,26.7191011 62.5455869,26.8061042 62.7136382,26.9920843 C62.8816895,27.1780645 62.9709978,27.4223296 62.9815631,27.7248795 C62.993537,28.0677695 62.9390781,28.3877361 62.8181862,28.6847793 C62.6972943,28.9818226 62.5218154,29.3060153 62.2917494,29.6573574 C61.9581698,30.2829219 61.5797474,30.9197458 61.1564823,31.567829 L60.8306255,32.0560025 C60.2735175,32.8731436 59.7527635,33.7193071 59.2683635,34.5944929 C58.7839636,35.4696788 58.3813001,36.3723022 58.0603732,37.3023632 C57.7394462,38.2324243 57.5969437,39.2117897 57.6328657,40.2404596 C57.6821703,41.6523594 58.1519233,42.6709282 59.0421246,43.2961659 C59.9323259,43.9214037 61.0934614,44.2090181 62.5255312,44.1590091 Z M79.1052689,43.5800319 C80.5978487,43.5279099 81.9981907,43.2922089 83.3062951,42.8729289 C84.6143994,42.4536489 85.8266321,41.891306 86.9429934,41.1859002 C88.0593546,40.4804945 89.065245,39.6476815 89.9606647,38.6874615 C90.8560844,37.7272414 91.6471324,36.6696932 92.3338085,35.5148166 C92.8507368,35.8602678 93.3591008,36.1050451 93.8589006,36.2491484 C94.3587003,36.3932518 94.8708101,36.4561469 95.3952301,36.4378337 C96.16169,36.4110684 96.9207542,36.172518 97.6724227,35.7221827 C98.4240912,35.2718474 99.1423351,34.7318036 99.8271544,34.1020514 C100.511974,33.4722992 101.155044,32.8036157 101.756366,32.0960008 L103.356999,30.2225921 L103.356999,30.2225921 C104.178078,29.4467194 104.732961,28.7104344 105.021648,28.013737 C105.310335,27.3170397 105.445522,26.706481 105.427209,26.1820611 C105.408896,25.6576412 105.283698,25.2530727 105.051615,24.9683556 C104.819532,24.6836385 104.5623,24.5462104 104.27992,24.5560713 C104.07822,24.5631149 103.90924,24.6396968 103.772981,24.7858173 L103.348066,25.3042583 L103.348066,25.3042583 L102.828257,25.9244618 L102.828257,25.9244618 C102.450085,26.3718516 102.027412,26.8460387 101.560237,27.347023 C101.093061,27.8480074 100.595631,28.3500483 100.067945,28.8531458 C99.5402596,29.3562432 99.0108132,29.8089156 98.479606,30.2111631 C97.9483988,30.6134105 97.4298538,30.9445347 96.9239711,31.2045356 C96.4180884,31.4645366 95.9533621,31.6019327 95.5297921,31.6167241 C95.2272422,31.6272894 94.9431013,31.5867253 94.6773696,31.4950319 C94.4116379,31.4033385 94.1736959,31.2399936 93.9635437,31.0049971 C94.2566809,30.1465876 94.4703707,29.326293 94.6046131,28.5441133 C94.7388556,27.7619336 94.7954115,27.0682938 94.774281,26.4631939 C94.7334285,25.2933341 94.4520089,24.318675 93.9300221,23.5392167 C93.4080353,22.7597585 92.7654447,22.1410199 92.0022504,21.683001 C91.239056,21.224982 90.4152396,20.9104423 89.5308013,20.7393816 C88.6463629,20.5683209 87.8209137,20.4961733 87.0544538,20.5229386 C85.2794941,20.5849216 83.6759313,20.9286922 82.2437655,21.5542505 C80.8115998,22.1798087 79.5471332,22.9812621 78.4503657,23.9586107 C77.3535982,24.9359593 76.4173743,26.0288691 75.641694,27.2373402 C74.8660137,28.4458112 74.2318755,29.6594369 73.7392796,30.878217 C73.2466836,32.0969972 72.8890024,33.2757255 72.6662362,34.4144019 C72.4434699,35.5530783 72.3461738,36.5258164 72.3743479,37.3326163 C72.4159046,38.5226462 72.6830772,39.523046 73.1758656,40.3338158 C73.6686539,41.1445855 74.261876,41.79534 74.9555319,42.2860792 C75.6491878,42.7768183 76.3730346,43.1200923 77.1270724,43.3159013 C77.8811101,43.5117102 78.540509,43.5997538 79.1052689,43.5800319 Z M81.5525612,38.1934898 C80.9474613,38.2146203 80.4588031,38.1004198 80.0865865,37.8508882 C79.71437,37.6013565 79.4255868,37.2832789 79.220237,36.8966553 C79.0148872,36.5100317 78.8740333,36.090864 78.7976754,35.6391521 C78.7213175,35.1874402 78.6764472,34.7699693 78.6630645,34.3867394 C78.6271426,33.3580695 78.793801,32.3475686 79.1630399,31.3552367 C79.5322788,30.3629048 80.0411869,29.4666685 80.6897643,28.6665279 C81.3383416,27.8663872 82.0930516,27.2139997 82.9538942,26.7093655 C83.8147368,26.2047313 84.7191531,25.9358619 85.6671429,25.9027573 C86.2924128,25.8809224 86.7906278,25.9796433 87.1617878,26.1989199 C87.5329478,26.4181966 87.8206744,26.7060192 88.0249677,27.0623878 C88.229261,27.4187564 88.364192,27.8128877 88.4297605,28.2447818 C88.4953291,28.6766758 88.5351569,29.0943228 88.5492439,29.4977228 C88.5851659,30.5263926 88.4190357,31.552021 88.0508533,32.5746079 C87.682671,33.5971948 87.1696008,34.5188197 86.5116428,35.3394825 C85.8536848,36.1601454 85.0946366,36.8328789 84.2344984,37.3576832 C83.3743601,37.8824874 82.4803811,38.1610896 81.5525612,38.1934898 Z M92.8672599,57.7304357 C93.4320199,57.7107139 93.9376144,57.5870365 94.3840437,57.3594036 C94.8304729,57.1317708 95.2240119,56.8353038 95.5646607,56.4700026 C95.9053095,56.1047015 96.2036814,55.6853416 96.4597762,55.211923 C96.7158711,54.7385043 96.9356119,54.2360632 97.1189988,53.7045998 L97.1736979,53.5360842 L97.1736979,53.5360842 L97.3085126,53.1678737 L97.3085126,53.1678737 L97.5066468,52.6611385 L97.5066468,52.6611385 L98.6347735,49.8348895 L98.6347735,49.8348895 L100.353569,45.5983735 L100.353569,45.5983735 L100.848841,44.4110539 L100.848841,44.4110539 L101.030999,43.9957523 L101.030999,43.9957523 L101.162602,43.7185296 L101.162602,43.7185296 L101.288326,43.468404 L101.288326,43.468404 L102.150211,41.6393389 C102.262955,41.3981154 102.381738,41.1491079 102.506559,40.8923166 L102.899142,40.0985912 C103.081675,39.7354458 103.25772,39.3792586 103.427275,39.0300295 L103.961428,37.9198587 L103.961428,37.9198587 L104.22844,37.3773971 L104.22844,37.3773971 L104.836902,36.1687071 L104.836902,36.1687071 C105.215649,35.4486701 105.67783,34.6600872 106.223445,33.8029583 C106.769059,32.9458294 107.375359,32.0916299 108.042346,31.2403599 C108.709332,30.3890899 109.4278,29.566314 110.19775,28.7720322 C110.967699,27.9777504 111.760812,27.2684867 112.577089,26.6442412 C113.393365,26.0199957 114.223953,25.516418 115.068852,25.1335081 C115.91375,24.7505982 116.7396,24.5450562 117.5464,24.5168821 C118.01031,24.500682 118.34558,24.5596552 118.55221,24.6938017 C118.758841,24.8279482 118.866382,25.0160414 118.874834,25.2580813 C118.888921,25.6614813 118.665194,26.1943534 118.203654,26.8566978 C117.742113,27.5190421 117.156799,28.2513412 116.447712,29.0535949 C115.738624,29.8558486 114.965569,30.705774 114.128547,31.603371 C113.291524,32.500968 112.504574,33.3867191 111.767697,34.2606244 C111.03082,35.1345296 110.403821,35.974306 109.886701,36.7799534 C109.427038,37.4960844 109.148145,38.1340998 109.05002,38.6939996 L109.021696,38.9003004 C109.010598,38.9680033 109.003746,39.0288263 109.001142,39.0827695 L109.000422,39.1585244 L109.008346,39.3854369 C109.042859,40.3737667 109.488504,41.1356963 110.345281,41.6712257 C111.202057,42.206755 112.396906,42.4477543 113.929826,42.3942235 C115.563595,42.337171 117.087359,42.0214303 118.501115,41.4470014 C119.914872,40.8725725 121.356354,40.0800835 122.825562,39.0695344 C124.29477,38.0589854 125.853271,36.8585182 127.501063,35.4681328 L128.516982,34.6159868 L128.516982,34.6159868 L130.14302,33.2705872 L130.14302,33.2705872 L131.295154,32.3288672 L131.295154,32.3288672 L132.501773,31.3513175 C132.707416,31.1854068 132.91533,31.0180032 133.125514,30.8491066 C133.657426,30.4670292 134.05002,29.9989411 134.303298,29.4448424 C134.556575,28.8907438 134.674058,28.3514845 134.655744,27.8270645 C134.63884,27.3429846 134.513642,26.9384161 134.28015,26.613359 C134.046658,26.2883019 133.708042,26.1335213 133.264302,26.149017 C133.042433,26.1567649 132.812238,26.2152899 132.57372,26.3245921 C132.335202,26.4338943 132.07757,26.5741559 131.800825,26.7453768 L129.784358,28.3732004 L129.784358,28.3732004 L127.513652,30.19024 L127.513652,30.19024 L126.284497,31.1643358 L126.284497,31.1643358 L125.155292,32.0513356 L125.155292,32.0513356 L123.960067,32.979246 L123.960067,32.979246 L122.522113,34.0755165 L122.522113,34.0755165 L121.560407,34.7920119 L121.560407,34.7920119 L120.974869,35.2193385 L120.974869,35.2193385 L120.411102,35.6224249 L120.411102,35.6224249 L119.868118,36.0006818 L119.868118,36.0006818 L119.368297,36.3378836 C119.208884,36.4434418 119.056664,36.5421574 118.911639,36.6340305 L118.498143,36.8891223 C118.302186,37.0064045 118.122415,37.108291 117.95883,37.1947819 C117.30449,37.5407454 116.805874,37.7197142 116.462984,37.7316882 C116.039415,37.7464796 115.734223,37.6814074 115.547411,37.5364716 C115.360598,37.3915358 115.262966,37.1980479 115.254513,36.9560079 C115.26583,36.8069071 115.438658,36.5406369 115.772999,36.1571974 L116.019821,35.8842126 L116.019821,35.8842126 L117.087802,34.7512033 L117.087802,34.7512033 L117.860381,33.9418416 C118.103936,33.6876355 118.353341,33.4242499 118.608597,33.1516845 L119.391913,32.3064495 L119.391913,32.3064495 L120.210329,31.4061364 L120.210329,31.4061364 C121.046295,30.4782844 121.820871,29.527333 122.534056,28.5532821 C123.247242,27.5792312 123.834541,26.614625 124.295953,25.6594636 C124.757366,24.7043021 124.973633,23.8132364 124.944754,22.9862665 C124.92292,22.3609966 124.742366,21.816999 124.403094,21.3542737 C124.063822,20.8915484 123.631559,20.5128487 123.106307,20.2181747 C122.581054,19.9235008 121.987848,19.7069295 121.326689,19.5684609 C120.665529,19.4299924 120.002144,19.3723799 119.336534,19.3956235 C118.368374,19.4294324 117.406202,19.6346863 116.450016,20.0113851 C115.49383,20.388084 114.561336,20.8649284 113.652533,21.4419186 C112.743731,22.0189087 111.867473,22.6603947 111.023759,23.3663768 C110.180044,24.0723588 109.397016,24.7812703 108.674675,25.4931112 C108.730958,25.3699782 108.78982,25.176074 108.851258,24.9113988 C108.912696,24.6467237 108.968564,24.367097 109.018861,24.072519 C109.069158,23.777941 109.109898,23.4988427 109.141081,23.235224 L109.170003,22.9531053 C109.173407,22.9117895 109.176103,22.8733256 109.17809,22.8377137 L109.181517,22.658266 L109.181517,22.658266 C109.160387,22.0531661 108.962833,21.6006379 108.588855,21.3006812 C108.214878,21.0007246 107.624489,20.8648333 106.81769,20.8930074 C106.29327,20.9113206 105.812423,21.1653986 105.375151,21.6552414 C104.937878,22.1450843 104.548981,22.7190648 104.208461,23.377183 C103.86794,24.0353013 103.568111,24.7020958 103.308975,25.3775666 L102.819114,26.6385337 L102.819114,26.6385337 L102.697248,26.943815 L102.697248,26.943815 C102.173597,28.719031 101.501488,30.5802096 100.680921,32.5273508 C99.8603549,34.474492 98.9653836,36.459572 97.9960074,38.4825909 C97.2689753,39.999855 96.5168117,41.5293562 95.7395166,43.0710945 L94.9538444,44.6169117 C93.8951119,46.6834402 92.8563733,48.7442217 91.8376287,50.7992564 C91.7385076,51.045053 91.6328979,51.2978076 91.5207997,51.5575203 L91.347786,51.952308 C91.1699059,52.3523143 90.9974205,52.7622295 90.8303297,53.1820536 C90.663239,53.6018777 90.5265793,54.0256878 90.4203507,54.4534839 C90.3141221,54.8812799 90.2680513,55.2968779 90.2821384,55.7002778 C90.3110168,56.5272477 90.56756,57.078689 91.051768,57.3546017 C91.5359761,57.6305144 92.14114,57.7557924 92.8672599,57.7304357 Z" id="path-4"></path>
        <filter x="-49.5%" y="-101.3%" width="202.3%" height="316.5%" filterUnits="objectBoundingBox" id="filter-5">
            <feOffset dx="0" dy="2" in="SourceAlpha" result="shadowOffsetOuter1"></feOffset>
            <feGaussianBlur stdDeviation="16" in="shadowOffsetOuter1" result="shadowBlurOuter1"></feGaussianBlur>
            <feColorMatrix values="0 0 0 0 0   0 0 0 0 0   0 0 0 0 0  0 0 0 0.5 0" type="matrix" in="shadowBlurOuter1" result="shadowMatrixOuter1"></feColorMatrix>
            <feOffset dx="0" dy="2" in="SourceAlpha" result="shadowOffsetOuter2"></feOffset>
            <feGaussianBlur stdDeviation="3.5" in="shadowOffsetOuter2" result="shadowBlurOuter2"></feGaussianBlur>
            <feColorMatrix values="0 0 0 0 1   0 0 0 0 0   0 0 0 0 0.067854021  0 0 0 0.556463068 0" type="matrix" in="shadowBlurOuter2" result="shadowMatrixOuter2"></feColorMatrix>
            <feOffset dx="2" dy="4" in="SourceAlpha" result="shadowOffsetOuter3"></feOffset>
            <feGaussianBlur stdDeviation="20" in="shadowOffsetOuter3" result="shadowBlurOuter3"></feGaussianBlur>
            <feColorMatrix values="0 0 0 0 1   0 0 0 0 0   0 0 0 0 0.61052229  0 0 0 0.918542395 0" type="matrix" in="shadowBlurOuter3" result="shadowMatrixOuter3"></feColorMatrix>
            <feMerge>
                <feMergeNode in="shadowMatrixOuter1"></feMergeNode>
                <feMergeNode in="shadowMatrixOuter2"></feMergeNode>
                <feMergeNode in="shadowMatrixOuter3"></feMergeNode>
            </feMerge>
        </filter>
    </defs>
    <g id="Page-1" stroke="none" stroke-width="1" fill="none" fill-rule="evenodd">
        <g id="Desktop-HD" transform="translate(-657.000000, -203.000000)">
            <g id="Page" transform="translate(-22.000000, 0.000000)">
                <g id="title" transform="translate(189.000000, 11.000000)">
                    <g id="Group-9" transform="translate(426.000000, 115.000000)">
                        <g id="neon" transform="translate(110.000000, 119.004873)">
                            <g id="border">
                                <use fill="black" fill-opacity="1" filter="url(#filter-2)" xlink:href="#path-1"></use>
                                <use stroke="#FF6992" stroke-width="3" xlink:href="#path-1"></use>
                            </g>
                            <g id="shop" fill-rule="nonzero">
                                <use fill="black" fill-opacity="1" filter="url(#filter-5)" xlink:href="#path-4"></use>
                                <use fill="url(#linearGradient-3)" xlink:href="#path-4"></use>
                            </g>
                        </g>
                    </g>
                </g>
            </g>
        </g>
    </g>
</svg>