<?xml version="1.0" encoding="UTF-8"?>
<svg width="63px" height="19px" viewBox="0 0 63 19" version="1.1" xmlns="http://www.w3.org/2000/svg" xmlns:xlink="http://www.w3.org/1999/xlink">
    <title>amazon</title>
    <g id="Pages" stroke="none" stroke-width="1" fill="none" fill-rule="evenodd">
        <g id="home" transform="translate(-736.000000, -367.000000)" fill="#000000">
            <g id="header" transform="translate(392.000000, 208.000000)">
                <g id="subline" transform="translate(250.000000, 152.000000)">
                    <path d="M135.857739,18.4482687 C136.304929,18.9307472 135.741347,22.276104 133.545207,23.8728098 C133.208281,24.1180464 132.886671,23.9874326 133.036757,23.6622257 C133.267222,23.1614258 133.631486,22.3701052 133.900688,21.6096048 C133.858571,21.6701527 133.800499,21.7292321 133.725485,21.7849997 C130.003257,24.5335494 124.608115,26 119.963001,26 C113.449798,26 107.586246,23.5866408 103.150242,19.5727548 C102.801719,19.2571166 103.113994,18.8269591 103.532224,19.0727626 C108.319537,21.8632109 114.238857,23.5419483 120.353348,23.5419483 C124.477071,23.5419483 129.01345,22.6872153 133.184576,20.9135096 C133.614531,20.7305412 133.996457,20.9897288 133.999975,21.3183893 C134.243038,20.56257 134.359314,19.8809592 134.111855,19.6051503 C133.59115,19.0240448 130.656839,19.3305909 129.33977,19.4665377 C128.938521,19.5091883 128.877264,19.2053066 129.238691,18.9867243 C131.575726,17.5552858 135.410548,17.9684577 135.857739,18.4482687 Z M115.269428,7 C116.078386,7 116.963354,7.34012065 117.503565,8.10331834 C118.114355,8.9522373 117.989482,10.1855202 117.989482,11.2667182 L117.986769,17.6349941 C117.986769,17.8368535 117.821177,18 117.614866,18 L115.68748,18 C115.494743,17.9861757 115.34001,17.828559 115.34001,17.6349941 L115.34001,12.2870796 C115.34001,11.8612379 115.378012,10.7993976 115.285717,10.395676 C115.141842,9.71820171 114.710217,9.52740039 114.151002,9.52740039 C113.684087,9.52740039 113.195455,9.84539962 112.997287,10.3541992 C112.799119,10.8629976 112.818122,11.7146801 112.818122,12.2870796 L112.818122,17.6349941 C112.818122,17.8368535 112.65253,18 112.446217,18 L110.518835,18 C110.323382,17.9861757 110.171362,17.828559 110.171362,17.6349941 L110.16865,12.2870796 C110.16865,11.1616403 110.350527,9.50527916 108.979644,9.50527916 C107.746599,9.50527916 107.652492,10.7812347 107.646802,11.8843451 L107.646761,17.6349941 C107.646761,17.8368535 107.481168,18 107.274858,18 L105.344757,18 C105.160164,17.9861757 105.013574,17.8451498 105,17.6654093 L105,7.57516531 C105,7.37330504 105.165593,7.21292166 105.371904,7.21292166 L107.1717,7.21292166 C107.359011,7.22121169 107.508313,7.36777289 107.521888,7.55027648 L107.521888,8.86928274 L107.557178,8.86928274 C108.026807,7.5945199 108.90906,7 110.098066,7 C111.306074,7 112.060741,7.5945199 112.603666,8.86928274 C113.070581,7.5945199 114.131999,7 115.269428,7 Z M143.463734,7 C146.407007,7 148,9.45831292 148,12.5841153 C148,15.604095 146.239614,18 143.463734,18 C140.573466,18 139,15.5416872 139,12.4782936 C139,9.39590513 140.592995,7 143.463734,7 Z M154.217391,7 C155.091065,7 155.942829,7.31799948 156.490586,8.18903967 C157,8.99648066 157,10.3541992 157,11.3303161 L157,17.6820027 C156.978091,17.8589742 156.816501,18 156.624788,18 L154.672031,18 C154.494008,17.9861757 154.346113,17.8534456 154.326944,17.6820027 L154.326944,12.2013585 C154.326944,11.0980402 154.452928,9.48315691 153.108182,9.48315691 C152.634373,9.48315691 152.198905,9.80392285 151.98254,10.290598 C151.708662,10.9072411 151.673058,11.5211175 151.673058,12.2013585 L151.673058,17.6349941 C151.670321,17.8368535 151.500515,18 151.292367,18 L149.353303,18 C149.158848,17.9861757 149.002737,17.828559 149.002737,17.6349941 L149,7.54198092 C149.016433,7.35671183 149.178023,7.21292166 149.375214,7.21292166 L151.180077,7.21292166 C151.34988,7.22121169 151.489559,7.33735616 151.527904,7.49497309 L151.527904,9.03795851 L151.563506,9.03795851 C152.108526,7.65811999 152.872646,7 154.217391,7 Z M124.52626,7 C125.442636,7 126.639751,7.24907759 127.362788,7.95840513 C128.279162,8.83288202 128.191764,9.99975382 128.191764,11.2695063 L128.191764,14.2692597 C128.191764,15.1708117 128.557254,15.5660839 128.901557,16.0534107 C129.020741,16.2266799 129.047225,16.4351465 128.893604,16.5650998 C128.509574,16.8926919 127.826264,17.5018473 127.45018,17.842974 L127.447533,17.8375505 C127.323062,17.9512674 127.142963,17.959389 127.002595,17.8835843 C126.377551,17.3529422 126.263667,17.1065733 125.922013,16.6002972 C124.889103,17.6778251 124.155471,18 122.817987,18 C121.231544,18 120,17.0009841 120,15.0002481 C120,13.4381007 120.826329,12.3741086 122.007553,11.854296 C123.029867,11.3940433 124.457398,11.312824 125.548576,11.1855783 L125.548576,10.9365013 C125.548576,10.4789562 125.583006,9.93748427 125.318158,9.54221188 C125.090388,9.18754642 124.650738,9.041349 124.261412,9.041349 C123.543672,9.041349 122.905388,9.41767178 122.749127,10.1973911 C122.717345,10.3706632 122.592867,10.5412268 122.420714,10.5493488 L120.595909,10.3490029 C120.442296,10.3138091 120.270145,10.1865614 120.315169,9.94560833 C120.73363,7.68225636 122.735886,7 124.52626,7 Z M98.5250787,7 C99.4412135,7 100.638016,7.24907759 101.360864,7.95840513 C102.277001,8.83288202 102.189622,9.99975382 102.189622,11.2695063 L102.189622,14.2692597 C102.189622,15.1708117 102.555019,15.5660839 102.899233,16.0534107 C103.02103,16.2266799 103.047508,16.4351465 102.893935,16.5650998 C102.510005,16.8926919 101.826875,17.5018473 101.450887,17.842974 L101.445595,17.8375505 C101.321148,17.9512674 101.141096,17.959389 101.000763,17.8835843 C100.375886,17.3529422 100.264677,17.1065733 99.9204641,16.6002972 C98.8878246,17.6778251 98.1570356,18 96.8172506,18 C95.2338696,18 94,17.0009841 94,15.0002481 C94,13.4381007 94.828759,12.3741086 96.0070264,11.854296 C97.0290743,11.3940433 98.4562349,11.312824 99.5471268,11.1855783 L99.5471268,10.9365013 C99.5471268,10.4789562 99.5815482,9.93748427 99.3194165,9.54221188 C99.0890569,9.18754642 98.6495248,9.041349 98.2629459,9.041349 C97.5453956,9.041349 96.9046283,9.41767178 96.7484088,10.1973911 C96.7166346,10.3706632 96.5921884,10.5412268 96.4227305,10.5493488 L94.5957535,10.3490029 C94.4421811,10.3138091 94.2727222,10.1865614 94.3150869,9.94560833 C94.7360862,7.68225636 96.7351693,7 98.5250787,7 Z M137.488777,7 C137.67581,7 137.825436,7.15562883 137.825436,7.38042522 L137.825436,8.66868431 C137.822944,8.88483475 137.665835,9.16727182 137.386532,9.61398341 L134.366583,14.5969812 C135.488778,14.5652813 136.673317,14.7583736 137.690774,15.4212366 C137.920199,15.5711007 137.982544,15.7901335 138,16.0062861 L138,17.6115667 C138,17.8305988 137.790523,18.0870956 137.571072,17.9545245 C135.778054,16.8680056 133.396508,16.7498434 131.413964,17.9660534 C131.21197,18.0928624 131,17.8392457 131,17.6202116 L131,16.0956285 C131,15.8506579 131.002492,15.4327641 131.214462,15.0609852 L134.713216,9.26237859 L131.668329,9.26237859 C131.481296,9.26237859 131.331671,9.1096334 131.331671,8.88483475 L131.331671,7.38042522 C131.331671,7.15274645 131.481296,7 131.660848,7 L137.488777,7 Z M125.548576,12.728773 C124.184606,12.728773 122.746479,13.0265821 122.746479,14.6672412 C122.746479,15.4984002 123.170237,16.0615323 123.893274,16.0615323 C124.420321,16.0615323 124.897048,15.7285278 125.196327,15.1870543 C125.567115,14.5210435 125.548576,13.8956437 125.548576,13.1457058 Z M99.5471268,12.728773 C98.1861598,12.728773 96.7484088,13.0265821 96.7484088,14.6672412 C96.7484088,15.4984002 97.1694071,16.0615323 97.8922547,16.0615323 C98.4218135,16.0615323 98.895768,15.7285278 99.1949702,15.1870543 C99.5656595,14.5210435 99.5471268,13.8956437 99.5471268,13.1457058 Z M143.480472,9.02146167 C142.07081,9.02146167 141.934847,10.8228952 141.926933,12.0342156 L141.926735,12.4254233 C141.930926,13.7093559 142.010788,15.9595466 143.463734,15.9595466 C145.000931,15.9595466 145.073468,13.8756806 145.073468,12.6058208 C145.073468,11.7701047 145.037199,10.7715846 144.777743,9.97927943 C144.554557,9.29008553 144.110975,9.02146167 143.480472,9.02146167 Z" id="amazon"></path>
                </g>
            </g>
        </g>
    </g>
</svg>