<svg id="ad89cd15-ae73-41ce-9957-b044076b3d04" data-name="tilt-logo" xmlns="http://www.w3.org/2000/svg" viewBox="0 0 144.87 98.55"><path d="M117.83,30.27c-4.25.15-9.4.33-14.56.48a1.28,1.28,0,0,0-1.41,1.12A111.89,111.89,0,0,1,77.41,76.73C75.47,79,73.31,81,71.24,83.09c-.77.77-.8,1.17,0,1.86a3,3,0,0,0,2.64.78,9.84,9.84,0,0,0,4.52-2A74.55,74.55,0,0,0,91.6,69.35c2.12-2.89,4-6,6-8.93.43-.64.41-.86-.42-.91a5.74,5.74,0,0,1-1.84-.37,2.15,2.15,0,0,1-1.14-3.38,6.13,6.13,0,0,1,4.52-3c2.29-.28,3.07-1.52,3.64-3.46A63.88,63.88,0,0,1,105,42.43,15,15,0,0,1,107,38.94a5.11,5.11,0,0,1,5.84-1.61,5.2,5.2,0,0,1,3.32,5,11.74,11.74,0,0,1-.36,3c-.37,1.48-.84,2.92-1.34,4.35-.3.84-.2,1.17.77,1.08,1.71-.16,3.43-.24,5.15-.35l16.38-1.06a10.5,10.5,0,0,1,4.71.55,5.67,5.67,0,0,1,3.18,3.23,3.2,3.2,0,0,1-1.14,3.64A7,7,0,0,1,140.41,58c-5.3.44-10.6.75-15.9,1-6.9.37-13.79.65-20.69,1a2.83,2.83,0,0,0-.72.22,2.92,2.92,0,0,0,.72.48c1.15.27,2.33.44,3.47.75s1.33,1,.93,2.07a82.53,82.53,0,0,0-4.62,17.8A8,8,0,0,0,105,87.6c1,1.31,1.54,1.49,3,.65,1.74-1,3.42-2,5.12-3.1A26.25,26.25,0,0,1,116,83.4a8.41,8.41,0,0,1,3.08-.83,4.78,4.78,0,0,1,4.74,6.28,6.93,6.93,0,0,1-3,3.81A40.53,40.53,0,0,1,110,97.89a13.73,13.73,0,0,1-8.27,0A10.76,10.76,0,0,1,94,86.63a13.2,13.2,0,0,1,1.7-4.25c.86-1.69,1.89-3.28,2.82-4.93a2.34,2.34,0,0,0,.14-.77,2.81,2.81,0,0,0-.65.46c-2.17,2.5-4.26,5.07-6.48,7.52a49.63,49.63,0,0,1-14,11.16,14.75,14.75,0,0,1-8.65,1.91,10.33,10.33,0,0,1-5.5-2.47c-1.27-1.07-1.33-1.77-.35-3.09s1.88-2.56,2.79-3.85a2.68,2.68,0,0,0,.22-.76,3.78,3.78,0,0,0-.64.3c-2.39,1.79-4.72,3.66-7.18,5.35a29.19,29.19,0,0,1-8.91,4.31,11.1,11.1,0,0,1-6.72-.12A3.45,3.45,0,0,1,40.93,92a36.46,36.46,0,0,0,2.17-3.67,2.12,2.12,0,0,0,.09-.73,4.74,4.74,0,0,0-.58.5c-1.81,2.06-3.61,4.14-5.43,6.2a6.18,6.18,0,0,1-1,.84c-6,4.36-12.66,2.17-14.9-4.91a27.87,27.87,0,0,1-.86-11A159.36,159.36,0,0,1,27.84,43.1a10,10,0,0,0,.24-1.35,12.88,12.88,0,0,0-1.39.18Q16.36,44.54,6,47.15a10.94,10.94,0,0,1-2.71.38,3.39,3.39,0,0,1-1.93-6.11,9,9,0,0,1,1.77-1c6.3-2.8,13-4.53,19.54-6.53,3-.92,6-1.8,9-2.62a3,3,0,0,0,2-1.64A109.63,109.63,0,0,1,45.42,11.42,44,44,0,0,1,50,6.57a12.41,12.41,0,0,1,3.4-1.94,2.49,2.49,0,0,1,2.9.47,2.82,2.82,0,0,1,.53,3A33.57,33.57,0,0,1,52,17.61a37.93,37.93,0,0,0-2.73,4.22,9.26,9.26,0,0,1-5.21,4.44c-2,.8-4,1.61-5.93,2.44-.22.09-.37.32-.56.48a2,2,0,0,0,.66.13,31,31,0,0,0,3.16-.5c2-.47,3.88-1,5.82-1.54,2.37-.65,4.7-1.45,7.1-2,5.42-1.21,10.85-2.33,16.3-3.41a3,3,0,0,0,2.19-1.57C75.14,16.51,77.45,12.67,80,9a37.93,37.93,0,0,1,5-5.35A13.57,13.57,0,0,1,90.53.46a9.15,9.15,0,0,1,10.94,4.23,18,18,0,0,1,2.26,7.52,46.76,46.76,0,0,1,.27,5c0,1,.31,1.21,1.25,1.16q9.94-.47,19.88-.81c2.6-.09,5.2-.08,7.79.05a13.37,13.37,0,0,1,4,.76,6.34,6.34,0,0,1,4.25,6.2,6.26,6.26,0,0,1-4.73,5.7,17,17,0,0,1-4.62.43C127.44,30.65,123.09,30.45,117.83,30.27ZM31.08,78c.2,2.26.39,4.53.61,6.79a3.8,3.8,0,0,0,.36.93c.24-.2.5-.38.72-.6a11.3,11.3,0,0,0,.79-.9,35.81,35.81,0,0,0,6.09-10.52A12.5,12.5,0,0,1,41.54,70a4.71,4.71,0,0,1,8.23,1.23,7.43,7.43,0,0,1,.16,3.61,19.13,19.13,0,0,0-.35,6.4,3.36,3.36,0,0,0,2.58,2.83c1.07.31,1.8-.47,2.46-1.14a8.73,8.73,0,0,0,2.3-5.75c.34-4.82.5-9.67,1.23-14.43a137,137,0,0,1,7.6-27.19c.47-1.23.42-1.32-.9-1.08-7.78,1.41-15.55,2.85-23.33,4.26a1.66,1.66,0,0,0-1.4,1.1,110.88,110.88,0,0,0-6.74,21.31C32.34,66.72,31.12,72.28,31.08,78Zm37.18-8.72c.08.78.6,1.11,1.25.67a4.42,4.42,0,0,0,1-1c2.43-3.46,5-6.85,7.24-10.41A104.43,104.43,0,0,0,89.49,33c.45-1.44.43-1.47-1.12-1.35-3,.25-5.89.54-8.83.76A1.62,1.62,0,0,0,78,33.67,185.4,185.4,0,0,0,69.8,60.93C69.19,63.7,68.77,66.5,68.26,69.29Zm16.95-49.2L98.61,19c.9-.07,1.81-.14,2.72-.24a1.38,1.38,0,0,0,.46-.22c-.13-.13-.23-.31-.39-.39a1.81,1.81,0,0,0-.58-.1,25.79,25.79,0,0,1-4-.28c-2-.44-4.31-.6-5-3.28-.23-.94-1-1.19-1.91-.8a3.8,3.8,0,0,0-1.42.84c-1.31,1.59-2.56,3.24-3.79,4.89C84.28,20,84.65,20.19,85.21,20.09Z"/><path d="M142,89.05a6.59,6.59,0,0,1-6.74,6.4c-3-.08-5.24-3-4.87-6.22a6.64,6.64,0,0,1,6-5.75A5.16,5.16,0,0,1,142,89.05Z"/><path d="M43.07,53.92a6.22,6.22,0,0,1,6.36-6.12,5.91,5.91,0,0,1,6.13,5.88,6.52,6.52,0,0,1-6.32,6.52A6.16,6.16,0,0,1,43.07,53.92Z"/></svg>