<svg width="1056" height="385" viewBox="0 0 1056 385" fill="none" xmlns="http://www.w3.org/2000/svg">
<rect width="1056" height="384" transform="translate(0 0.289062)" fill="#F1EDEA"/>
<path d="M435.348 201.418C432.919 206.129 430.622 210.743 428.455 215.258C426.289 219.707 424.254 223.83 422.351 227.625C421.563 229.196 420.775 231.028 419.988 233.122C419.266 235.151 418.905 236.95 418.905 238.521C418.905 239.437 419.102 240.157 419.495 240.68C419.955 241.204 420.677 241.465 421.662 241.465C423.04 241.465 424.779 241.073 426.88 240.288C428.981 239.437 431.245 238.357 433.674 237.048C436.103 235.674 438.663 234.136 441.354 232.435C444.045 230.668 446.671 228.869 449.231 227.036C451.856 225.139 454.351 223.274 456.714 221.442C459.077 219.544 461.177 217.81 463.015 216.239C464.066 215.519 465.05 215.16 465.969 215.16C467.085 215.16 468.004 215.65 468.726 216.632C469.448 217.613 469.809 218.857 469.809 220.362C469.809 221.867 469.448 223.405 468.726 224.975C468.004 226.546 466.691 228.083 464.788 229.589C460.521 233.449 456.189 237.114 451.791 240.582C447.458 244.05 443.126 247.126 438.794 249.809C434.527 252.426 430.293 254.52 426.092 256.091C421.891 257.661 417.822 258.446 413.883 258.446C411.257 258.446 409.058 258.087 407.286 257.367C405.514 256.712 404.07 255.796 402.954 254.618C401.904 253.375 401.149 251.968 400.689 250.398C400.23 248.762 400 247.028 400 245.195C400 241.923 400.558 238.521 401.674 234.987C402.79 231.453 404.037 228.28 405.415 225.466C407.385 221.409 409.321 217.384 411.225 213.393C413.194 209.401 415.097 205.573 416.935 201.908H412.702C409.026 201.908 406.498 201.32 405.12 200.142C403.742 198.964 403.052 197.622 403.052 196.117C403.052 195.463 403.249 194.678 403.643 193.761C404.103 192.78 404.726 191.897 405.514 191.111C406.367 190.261 407.385 189.541 408.566 188.952C409.748 188.363 411.093 188.068 412.603 188.068H423.237L444.012 146.941C445.325 144.454 446.933 142.688 448.837 141.641C450.806 140.528 452.841 139.972 454.942 139.972C456.911 139.972 458.716 140.495 460.357 141.542C461.998 142.589 462.818 144.323 462.818 146.745C462.818 147.988 462.523 149.264 461.932 150.573C461.407 151.816 460.685 153.288 459.766 154.99C459.175 156.102 458.453 157.444 457.6 159.014C456.747 160.519 455.828 162.155 454.843 163.922C453.924 165.623 452.939 167.423 451.889 169.321C450.905 171.218 449.92 173.051 448.935 174.817C446.704 179.005 444.341 183.422 441.846 188.068H473.945C475.52 188.068 476.964 188.167 478.277 188.363C479.59 188.494 480.706 188.821 481.625 189.344C482.609 189.803 483.364 190.457 483.889 191.308C484.414 192.158 484.677 193.303 484.677 194.743C484.677 195.463 484.546 196.183 484.283 196.902C484.086 197.622 483.659 198.277 483.003 198.866C482.412 199.455 481.559 199.945 480.443 200.338C479.393 200.731 478.014 200.992 476.308 201.123L435.348 201.418Z" fill="#E7DFDA"/>
<path d="M481.723 171.087C481.723 169.582 481.986 168.045 482.511 166.474C483.102 164.838 483.955 163.366 485.071 162.057C486.187 160.748 487.565 159.669 489.206 158.818C490.913 157.967 492.915 157.542 495.212 157.542C499.019 157.542 501.678 158.294 503.188 159.799C504.697 161.239 505.452 163.071 505.452 165.296C505.452 166.539 505.19 167.914 504.665 169.419C504.205 170.924 503.483 172.331 502.498 173.639C501.514 174.883 500.234 175.93 498.658 176.78C497.083 177.631 495.212 178.056 493.046 178.056C488.976 178.056 486.121 177.435 484.48 176.192C482.839 174.883 481.92 173.181 481.723 171.087ZM470.892 193.173C472.008 191.34 473.288 190.032 474.732 189.246C476.176 188.461 477.653 188.068 479.163 188.068C481.657 188.068 483.791 188.886 485.563 190.522C487.401 192.093 488.32 194.121 488.32 196.608C488.254 197.197 488.156 197.786 488.025 198.375C487.959 198.964 487.762 199.553 487.434 200.142C486.515 201.843 485.76 203.283 485.169 204.461C484.578 205.638 484.021 206.751 483.495 207.798C483.036 208.779 482.576 209.761 482.117 210.743C481.657 211.724 481.099 212.902 480.443 214.276C479.655 215.912 478.769 217.712 477.785 219.675C476.8 221.572 475.848 223.536 474.929 225.564C474.076 227.593 473.321 229.589 472.665 231.552C472.074 233.515 471.778 235.314 471.778 236.95C471.778 238.717 472.205 239.895 473.058 240.484C473.977 241.007 475.257 241.269 476.898 241.269C478.736 241.269 480.64 240.876 482.609 240.091C484.644 239.306 486.679 238.292 488.714 237.048C490.749 235.805 492.751 234.398 494.72 232.828C496.689 231.192 498.527 229.556 500.234 227.92C502.006 226.284 503.614 224.713 505.058 223.208C506.568 221.703 507.815 220.362 508.8 219.184C510.113 217.941 511.426 217.319 512.738 217.319C513.92 217.319 514.872 217.842 515.594 218.889C516.382 219.936 516.775 221.278 516.775 222.914C516.775 224.419 516.382 226.022 515.594 227.724C514.872 229.425 513.657 231.028 511.951 232.533C508.603 235.936 505.19 239.208 501.711 242.349C498.232 245.424 494.654 248.173 490.978 250.594C487.368 252.95 483.725 254.847 480.049 256.287C476.373 257.727 472.665 258.446 468.923 258.446C463.606 258.446 459.405 257.105 456.32 254.422C453.301 251.674 451.791 247.42 451.791 241.662C451.791 238.652 452.217 235.707 453.071 232.828C453.924 229.948 454.942 227.167 456.123 224.484C457.305 221.736 458.552 219.119 459.865 216.632C461.177 214.08 462.293 211.659 463.212 209.368C463.541 208.518 464.098 207.209 464.886 205.442C465.739 203.675 466.626 201.876 467.545 200.043C468.595 197.884 469.711 195.594 470.892 193.173Z" fill="#E7DFDA"/>
<path d="M521.797 227.625C521.075 229.13 520.353 230.897 519.631 232.926C518.974 234.889 518.646 236.656 518.646 238.226C518.646 239.208 518.843 239.993 519.237 240.582C519.631 241.171 520.386 241.465 521.502 241.465C522.88 241.465 524.587 241.073 526.622 240.288C528.722 239.437 530.954 238.357 533.317 237.048C535.746 235.674 538.24 234.136 540.8 232.435C543.426 230.668 546.018 228.869 548.578 227.036C551.138 225.139 553.567 223.274 555.865 221.442C558.228 219.544 560.328 217.81 562.166 216.239C562.691 215.781 563.315 215.454 564.037 215.258C564.759 215.061 565.383 214.963 565.908 214.963C567.221 214.963 568.304 215.421 569.157 216.337C570.01 217.254 570.437 218.464 570.437 219.969C570.437 221.343 569.977 222.881 569.058 224.583C568.139 226.284 566.531 227.953 564.234 229.589C560.033 233.449 555.799 237.114 551.532 240.582C547.266 244.05 542.999 247.126 538.732 249.809C534.531 252.426 530.33 254.52 526.129 256.091C521.994 257.661 517.957 258.446 514.018 258.446C511.327 258.446 509.063 258.087 507.225 257.367C505.452 256.647 504.008 255.665 502.892 254.422C501.842 253.179 501.087 251.706 500.628 250.005C500.168 248.304 499.938 246.504 499.938 244.606C499.938 241.4 500.398 238.128 501.317 234.791C502.302 231.388 503.45 228.28 504.763 225.466C507.061 220.362 509.391 215.29 511.754 210.252C514.117 205.213 516.283 200.6 518.252 196.412L548.086 133.101C549.268 130.549 550.843 128.749 552.812 127.702C554.847 126.655 556.882 126.132 558.917 126.132C560.952 126.132 562.79 126.688 564.431 127.8C566.137 128.913 566.991 130.712 566.991 133.199C566.991 134.377 566.695 135.62 566.105 136.929C565.579 138.238 564.89 139.645 564.037 141.15C562.396 144.225 560.427 147.988 558.129 152.438C555.897 156.887 553.469 161.73 550.843 166.965C548.283 172.2 545.625 177.664 542.868 183.357C540.176 188.985 537.518 194.481 534.892 199.847C532.332 205.213 529.904 210.317 527.606 215.16C525.374 219.936 523.438 224.092 521.797 227.625Z" fill="#E7DFDA"/>
<path d="M586.585 201.418C584.156 206.129 581.858 210.743 579.692 215.258C577.526 219.707 575.491 223.83 573.588 227.625C572.8 229.196 572.012 231.028 571.225 233.122C570.503 235.151 570.142 236.95 570.142 238.521C570.142 239.437 570.338 240.157 570.732 240.68C571.192 241.204 571.914 241.465 572.898 241.465C574.277 241.465 576.016 241.073 578.117 240.288C580.217 239.437 582.482 238.357 584.911 237.048C587.339 235.674 589.899 234.136 592.591 232.435C595.282 230.668 597.908 228.869 600.468 227.036C603.093 225.139 605.588 223.274 607.951 221.442C610.314 219.544 612.414 217.81 614.252 216.239C615.303 215.519 616.287 215.16 617.206 215.16C618.322 215.16 619.241 215.65 619.963 216.632C620.685 217.613 621.046 218.857 621.046 220.362C621.046 221.867 620.685 223.405 619.963 224.975C619.241 226.546 617.928 228.083 616.025 229.589C611.758 233.449 607.426 237.114 603.028 240.582C598.695 244.05 594.363 247.126 590.031 249.809C585.764 252.426 581.53 254.52 577.329 256.091C573.128 257.661 569.058 258.446 565.12 258.446C562.494 258.446 560.295 258.087 558.523 257.367C556.751 256.712 555.307 255.796 554.191 254.618C553.141 253.375 552.386 251.968 551.926 250.398C551.467 248.762 551.237 247.028 551.237 245.195C551.237 241.923 551.795 238.521 552.911 234.987C554.027 231.453 555.274 228.28 556.652 225.466C558.622 221.409 560.558 217.384 562.462 213.393C564.431 209.401 566.334 205.573 568.172 201.908H563.938C560.263 201.908 557.735 201.32 556.357 200.142C554.978 198.964 554.289 197.622 554.289 196.117C554.289 195.463 554.486 194.678 554.88 193.761C555.339 192.78 555.963 191.897 556.751 191.111C557.604 190.261 558.622 189.541 559.803 188.952C560.985 188.363 562.33 188.068 563.84 188.068H574.474L595.249 146.941C596.562 144.454 598.17 142.688 600.074 141.641C602.043 140.528 604.078 139.972 606.178 139.972C608.148 139.972 609.953 140.495 611.594 141.542C613.235 142.589 614.055 144.323 614.055 146.745C614.055 147.988 613.76 149.264 613.169 150.573C612.644 151.816 611.922 153.288 611.003 154.99C610.412 156.102 609.69 157.444 608.837 159.014C607.984 160.519 607.065 162.155 606.08 163.922C605.161 165.623 604.176 167.423 603.126 169.321C602.142 171.218 601.157 173.051 600.172 174.817C597.941 179.005 595.577 183.422 593.083 188.068H625.182C626.757 188.068 628.201 188.167 629.514 188.363C630.827 188.494 631.943 188.821 632.862 189.344C633.846 189.803 634.601 190.457 635.126 191.308C635.651 192.158 635.914 193.303 635.914 194.743C635.914 195.463 635.783 196.183 635.52 196.902C635.323 197.622 634.896 198.277 634.24 198.866C633.649 199.455 632.796 199.945 631.68 200.338C630.63 200.731 629.251 200.992 627.545 201.123L586.585 201.418Z" fill="#E7DFDA"/>
<path d="M656 242.349C656 244.377 655.606 246.308 654.818 248.14C654.096 249.972 653.079 251.608 651.766 253.048C650.519 254.422 649.042 255.502 647.335 256.287C645.629 257.138 643.824 257.563 641.92 257.563C640.345 257.563 638.868 257.236 637.489 256.581C636.111 255.993 634.896 255.175 633.846 254.128C632.862 253.081 632.074 251.87 631.483 250.496C630.892 249.056 630.597 247.551 630.597 245.981C630.597 244.017 630.958 242.153 631.68 240.386C632.468 238.553 633.518 236.95 634.831 235.576C636.144 234.202 637.686 233.122 639.458 232.337C641.231 231.486 643.134 231.061 645.169 231.061C648.386 231.061 650.978 232.141 652.948 234.3C654.983 236.459 656 239.142 656 242.349Z" fill="#E7DFDA"/>
</svg>
