<svg width="340" height="193" viewBox="0 0 340 193" fill="none" xmlns="http://www.w3.org/2000/svg">
<rect width="340" height="192" transform="translate(0 0.289062)" fill="#F1EDEA"/>
<path d="M123.674 100.853C122.459 103.209 121.311 105.516 120.228 107.773C119.145 109.998 118.127 112.06 117.175 113.957C116.782 114.742 116.388 115.659 115.994 116.706C115.633 117.72 115.452 118.62 115.452 119.405C115.452 119.863 115.551 120.223 115.748 120.485C115.977 120.746 116.338 120.877 116.831 120.877C117.52 120.877 118.39 120.681 119.44 120.288C120.49 119.863 121.623 119.323 122.837 118.669C124.051 117.982 125.331 117.213 126.677 116.362C128.023 115.479 129.335 114.579 130.615 113.663C131.928 112.714 133.175 111.781 134.357 110.865C135.538 109.916 136.589 109.049 137.508 108.264C138.033 107.904 138.525 107.724 138.985 107.724C139.543 107.724 140.002 107.97 140.363 108.46C140.724 108.951 140.905 109.573 140.905 110.325C140.905 111.078 140.724 111.847 140.363 112.632C140.002 113.417 139.346 114.186 138.394 114.939C136.261 116.869 134.094 118.701 131.895 120.436C129.729 122.17 127.563 123.707 125.397 125.049C123.264 126.358 121.147 127.405 119.046 128.19C116.946 128.975 114.911 129.368 112.942 129.368C111.629 129.368 110.529 129.188 109.643 128.828C108.757 128.501 108.035 128.043 107.477 127.454C106.952 126.832 106.574 126.129 106.345 125.343C106.115 124.525 106 123.658 106 122.742C106 121.106 106.279 119.405 106.837 117.638C107.395 115.871 108.018 114.284 108.708 112.878C109.692 110.849 110.661 108.837 111.612 106.841C112.597 104.845 113.549 102.931 114.468 101.099H112.351C110.513 101.099 109.249 100.804 108.56 100.215C107.871 99.6264 107.526 98.9557 107.526 98.2031C107.526 97.876 107.625 97.4833 107.822 97.0253C108.051 96.5345 108.363 96.0928 108.757 95.7002C109.184 95.2748 109.692 94.9149 110.283 94.6204C110.874 94.326 111.547 94.1787 112.302 94.1787H117.618L128.006 73.615C128.663 72.3717 129.467 71.4883 130.418 70.9648C131.403 70.4086 132.421 70.1305 133.471 70.1305C134.455 70.1305 135.358 70.3922 136.178 70.9157C136.999 71.4392 137.409 72.3063 137.409 73.5169C137.409 74.1385 137.262 74.7765 136.966 75.4309C136.704 76.0526 136.343 76.7887 135.883 77.6394C135.588 78.1956 135.227 78.8664 134.8 79.6516C134.373 80.4041 133.914 81.2221 133.422 82.1055C132.962 82.9562 132.47 83.856 131.945 84.8048C131.452 85.7537 130.96 86.6698 130.468 87.5532C129.352 89.6472 128.17 91.8557 126.923 94.1787H142.972C143.76 94.1787 144.482 94.2278 145.138 94.326C145.795 94.3914 146.353 94.555 146.812 94.8168C147.305 95.0458 147.682 95.373 147.945 95.7983C148.207 96.2237 148.338 96.7962 148.338 97.5161C148.338 97.876 148.273 98.2359 148.142 98.5958C148.043 98.9557 147.83 99.2829 147.502 99.5773C147.206 99.8718 146.779 100.117 146.222 100.314C145.696 100.51 145.007 100.641 144.154 100.706L123.674 100.853Z" fill="#E7DFDA"/>
<path d="M146.862 85.6882C146.862 84.9357 146.993 84.1668 147.255 83.3816C147.551 82.5636 147.977 81.8274 148.535 81.173C149.093 80.5187 149.783 79.9788 150.603 79.5535C151.456 79.1281 152.457 78.9154 153.606 78.9154C155.51 78.9154 156.839 79.2917 157.594 80.0442C158.349 80.7641 158.726 81.6802 158.726 82.7926C158.726 83.4143 158.595 84.1014 158.332 84.8539C158.103 85.6064 157.742 86.3099 157.249 86.9643C156.757 87.5859 156.117 88.1094 155.329 88.5348C154.542 88.9601 153.606 89.1728 152.523 89.1728C150.488 89.1728 149.061 88.8619 148.24 88.2403C147.419 87.5859 146.96 86.7352 146.862 85.6882ZM141.446 96.7308C142.004 95.8147 142.644 95.1603 143.366 94.7677C144.088 94.3751 144.827 94.1787 145.582 94.1787C146.829 94.1787 147.895 94.5877 148.782 95.4057C149.701 96.1909 150.16 97.2052 150.16 98.4485C150.127 98.743 150.078 99.0375 150.012 99.3319C149.979 99.6264 149.881 99.9209 149.717 100.215C149.257 101.066 148.88 101.786 148.585 102.375C148.289 102.964 148.01 103.52 147.748 104.043C147.518 104.534 147.288 105.025 147.058 105.516C146.829 106.007 146.55 106.596 146.222 107.283C145.828 108.101 145.385 109 144.892 109.982C144.4 110.931 143.924 111.912 143.465 112.927C143.038 113.941 142.661 114.939 142.332 115.92C142.037 116.902 141.889 117.802 141.889 118.62C141.889 119.503 142.103 120.092 142.529 120.386C142.989 120.648 143.629 120.779 144.449 120.779C145.368 120.779 146.32 120.583 147.305 120.19C148.322 119.798 149.339 119.29 150.357 118.669C151.374 118.047 152.375 117.344 153.36 116.558C154.345 115.74 155.264 114.922 156.117 114.104C157.003 113.286 157.807 112.501 158.529 111.749C159.284 110.996 159.908 110.325 160.4 109.737C161.056 109.115 161.713 108.804 162.369 108.804C162.96 108.804 163.436 109.066 163.797 109.589C164.191 110.113 164.388 110.784 164.388 111.601C164.388 112.354 164.191 113.156 163.797 114.006C163.436 114.857 162.829 115.659 161.975 116.411C160.302 118.113 158.595 119.748 156.855 121.319C155.116 122.857 153.327 124.231 151.489 125.442C149.684 126.619 147.863 127.568 146.025 128.288C144.187 129.008 142.332 129.368 140.462 129.368C137.803 129.368 135.703 128.697 134.16 127.356C132.65 125.981 131.895 123.855 131.895 120.975C131.895 119.47 132.109 117.998 132.535 116.558C132.962 115.119 133.471 113.728 134.062 112.387C134.652 111.013 135.276 109.704 135.932 108.46C136.589 107.184 137.147 105.974 137.606 104.829C137.77 104.403 138.049 103.749 138.443 102.866C138.87 101.982 139.313 101.082 139.772 100.166C140.297 99.0866 140.855 97.9414 141.446 96.7308Z" fill="#E7DFDA"/>
<path d="M166.898 113.957C166.537 114.71 166.176 115.593 165.815 116.607C165.487 117.589 165.323 118.472 165.323 119.258C165.323 119.748 165.422 120.141 165.618 120.436C165.815 120.73 166.193 120.877 166.751 120.877C167.44 120.877 168.293 120.681 169.311 120.288C170.361 119.863 171.477 119.323 172.658 118.669C173.873 117.982 175.12 117.213 176.4 116.362C177.713 115.479 179.009 114.579 180.289 113.663C181.569 112.714 182.784 111.781 183.932 110.865C185.114 109.916 186.164 109.049 187.083 108.264C187.346 108.035 187.657 107.872 188.018 107.773C188.379 107.675 188.691 107.626 188.954 107.626C189.61 107.626 190.152 107.855 190.578 108.313C191.005 108.771 191.218 109.377 191.218 110.129C191.218 110.816 190.989 111.585 190.529 112.436C190.07 113.286 189.266 114.121 188.117 114.939C186.016 116.869 183.899 118.701 181.766 120.436C179.633 122.17 177.499 123.707 175.366 125.049C173.266 126.358 171.165 127.405 169.065 128.19C166.997 128.975 164.978 129.368 163.009 129.368C161.664 129.368 160.531 129.188 159.612 128.828C158.726 128.468 158.004 127.977 157.446 127.356C156.921 126.734 156.544 125.998 156.314 125.147C156.084 124.296 155.969 123.397 155.969 122.448C155.969 120.845 156.199 119.209 156.658 117.54C157.151 115.839 157.725 114.284 158.382 112.878C159.53 110.325 160.695 107.79 161.877 105.27C163.058 102.751 164.142 100.444 165.126 98.3504L180.043 66.695C180.634 65.419 181.422 64.5192 182.406 63.9957C183.424 63.4722 184.441 63.2104 185.458 63.2104C186.476 63.2104 187.395 63.4886 188.215 64.0448C189.069 64.601 189.495 65.5008 189.495 66.7441C189.495 67.333 189.348 67.9547 189.052 68.609C188.79 69.2634 188.445 69.9669 188.018 70.7194C187.198 72.2572 186.213 74.1385 185.065 76.3634C183.949 78.5883 182.734 81.0094 181.422 83.6269C180.142 86.2444 178.812 88.9765 177.434 91.823C176.088 94.6368 174.759 97.3852 173.446 100.068C172.166 102.751 170.952 105.303 169.803 107.724C168.687 110.113 167.719 112.19 166.898 113.957Z" fill="#E7DFDA"/>
<path d="M199.292 100.853C198.078 103.209 196.929 105.516 195.846 107.773C194.763 109.998 193.746 112.06 192.794 113.957C192.4 114.742 192.006 115.659 191.612 116.706C191.251 117.72 191.071 118.62 191.071 119.405C191.071 119.863 191.169 120.223 191.366 120.485C191.596 120.746 191.957 120.877 192.449 120.877C193.138 120.877 194.008 120.681 195.058 120.288C196.109 119.863 197.241 119.323 198.455 118.669C199.67 117.982 200.95 117.213 202.295 116.362C203.641 115.479 204.954 114.579 206.234 113.663C207.547 112.714 208.794 111.781 209.975 110.865C211.157 109.916 212.207 109.049 213.126 108.264C213.651 107.904 214.144 107.724 214.603 107.724C215.161 107.724 215.621 107.97 215.982 108.46C216.343 108.951 216.523 109.573 216.523 110.325C216.523 111.078 216.343 111.847 215.982 112.632C215.621 113.417 214.964 114.186 214.012 114.939C211.879 116.869 209.713 118.701 207.514 120.436C205.348 122.17 203.182 123.707 201.015 125.049C198.882 126.358 196.765 127.405 194.665 128.19C192.564 128.975 190.529 129.368 188.56 129.368C187.247 129.368 186.148 129.188 185.262 128.828C184.375 128.501 183.653 128.043 183.095 127.454C182.57 126.832 182.193 126.129 181.963 125.343C181.733 124.525 181.618 123.658 181.618 122.742C181.618 121.106 181.897 119.405 182.455 117.638C183.013 115.871 183.637 114.284 184.326 112.878C185.311 110.849 186.279 108.837 187.231 106.841C188.215 104.845 189.167 102.931 190.086 101.099H187.969C186.131 101.099 184.868 100.804 184.178 100.215C183.489 99.6264 183.145 98.9557 183.145 98.2031C183.145 97.876 183.243 97.4833 183.44 97.0253C183.67 96.5345 183.982 96.0928 184.375 95.7002C184.802 95.2748 185.311 94.9149 185.902 94.6204C186.492 94.326 187.165 94.1787 187.92 94.1787H193.237L203.625 73.615C204.281 72.3717 205.085 71.4883 206.037 70.9648C207.022 70.4086 208.039 70.1305 209.089 70.1305C210.074 70.1305 210.976 70.3922 211.797 70.9157C212.617 71.4392 213.028 72.3063 213.028 73.5169C213.028 74.1385 212.88 74.7765 212.585 75.4309C212.322 76.0526 211.961 76.7887 211.502 77.6394C211.206 78.1956 210.845 78.8664 210.418 79.6516C209.992 80.4041 209.532 81.2221 209.04 82.1055C208.581 82.9562 208.088 83.856 207.563 84.8048C207.071 85.7537 206.578 86.6698 206.086 87.5532C204.97 89.6472 203.789 91.8557 202.542 94.1787H218.591C219.378 94.1787 220.101 94.2278 220.757 94.326C221.413 94.3914 221.971 94.555 222.431 94.8168C222.923 95.0458 223.301 95.373 223.563 95.7983C223.826 96.2237 223.957 96.7962 223.957 97.5161C223.957 97.876 223.891 98.2359 223.76 98.5958C223.662 98.9557 223.448 99.2829 223.12 99.5773C222.825 99.8718 222.398 100.117 221.84 100.314C221.315 100.51 220.626 100.641 219.772 100.706L199.292 100.853Z" fill="#E7DFDA"/>
<path d="M234 121.319C234 122.333 233.803 123.298 233.409 124.215C233.048 125.131 232.539 125.949 231.883 126.668C231.259 127.356 230.521 127.895 229.668 128.288C228.814 128.713 227.912 128.926 226.96 128.926C226.172 128.926 225.434 128.762 224.745 128.435C224.055 128.141 223.448 127.732 222.923 127.208C222.431 126.685 222.037 126.08 221.742 125.392C221.446 124.673 221.298 123.92 221.298 123.135C221.298 122.153 221.479 121.221 221.84 120.337C222.234 119.421 222.759 118.62 223.415 117.933C224.072 117.245 224.843 116.706 225.729 116.313C226.615 115.888 227.567 115.675 228.585 115.675C230.193 115.675 231.489 116.215 232.474 117.295C233.491 118.374 234 119.716 234 121.319Z" fill="#E7DFDA"/>
</svg>
