<svg width="64" height="65" viewBox="0 0 64 65" fill="none" xmlns="http://www.w3.org/2000/svg">
<rect width="64" height="64" transform="translate(0 0.289062)" fill="#F1EDEA"/>
<path d="M17.5231 33.7156C17.1436 34.4517 16.7846 35.1726 16.4462 35.8781C16.1077 36.5733 15.7897 37.2175 15.4923 37.8105C15.3692 38.0559 15.2462 38.3422 15.1231 38.6694C15.0103 38.9863 14.9538 39.2675 14.9538 39.5129C14.9538 39.6561 14.9846 39.7685 15.0462 39.8503C15.1179 39.9321 15.2308 39.973 15.3846 39.973C15.6 39.973 15.8718 39.9117 16.2 39.789C16.5282 39.6561 16.8821 39.4874 17.2615 39.2829C17.641 39.0681 18.041 38.8279 18.4615 38.562C18.8821 38.286 19.2923 38.0048 19.6923 37.7185C20.1026 37.422 20.4923 37.1306 20.8615 36.8443C21.2308 36.5478 21.559 36.2768 21.8462 36.0314C22.0103 35.919 22.1641 35.8627 22.3077 35.8627C22.4821 35.8627 22.6256 35.9394 22.7385 36.0928C22.8513 36.2462 22.9077 36.4404 22.9077 36.6756C22.9077 36.9108 22.8513 37.151 22.7385 37.3964C22.6256 37.6418 22.4205 37.8821 22.1231 38.1173C21.4564 38.7205 20.7795 39.2931 20.0923 39.835C19.4154 40.3769 18.7385 40.8574 18.0615 41.2767C17.3949 41.6856 16.7333 42.0128 16.0769 42.2582C15.4205 42.5036 14.7846 42.6263 14.1692 42.6263C13.759 42.6263 13.4154 42.5701 13.1385 42.4576C12.8615 42.3554 12.6359 42.2122 12.4615 42.0282C12.2974 41.8339 12.1795 41.6141 12.1077 41.3687C12.0359 41.1131 12 40.8421 12 40.5558C12 40.0446 12.0872 39.5129 12.2615 38.9608C12.4359 38.4087 12.6308 37.9128 12.8462 37.4731C13.1538 36.8392 13.4564 36.2104 13.7538 35.5867C14.0615 34.963 14.359 34.3648 14.6462 33.7922H13.9846C13.4103 33.7922 13.0154 33.7002 12.8 33.5162C12.5846 33.3321 12.4769 33.1225 12.4769 32.8874C12.4769 32.7851 12.5077 32.6624 12.5692 32.5193C12.641 32.3659 12.7385 32.2279 12.8615 32.1052C12.9949 31.9723 13.1538 31.8598 13.3385 31.7678C13.5231 31.6758 13.7333 31.6297 13.9692 31.6297H15.6308L18.8769 25.2036C19.0821 24.815 19.3333 24.539 19.6308 24.3754C19.9385 24.2016 20.2564 24.1147 20.5846 24.1147C20.8923 24.1147 21.1744 24.1965 21.4308 24.36C21.6872 24.5236 21.8154 24.7946 21.8154 25.1729C21.8154 25.3672 21.7692 25.5665 21.6769 25.771C21.5949 25.9653 21.4821 26.1954 21.3385 26.4612C21.2462 26.635 21.1333 26.8446 21 27.09C20.8667 27.3252 20.7231 27.5808 20.5692 27.8569C20.4256 28.1227 20.2718 28.4039 20.1077 28.7004C19.9538 28.9969 19.8 29.2832 19.6462 29.5593C19.2974 30.2136 18.9282 30.9038 18.5385 31.6297H23.5538C23.8 31.6297 24.0256 31.6451 24.2308 31.6758C24.4359 31.6962 24.6103 31.7473 24.7538 31.8291C24.9077 31.9007 25.0256 32.0029 25.1077 32.1359C25.1897 32.2688 25.2308 32.4477 25.2308 32.6727C25.2308 32.7851 25.2103 32.8976 25.1692 33.0101C25.1385 33.1225 25.0718 33.2248 24.9692 33.3168C24.8769 33.4088 24.7436 33.4855 24.5692 33.5469C24.4051 33.6082 24.1897 33.6491 23.9231 33.6696L17.5231 33.7156Z" fill="#E7DFDA"/>
<path d="M24.7692 28.9765C24.7692 28.7413 24.8103 28.501 24.8923 28.2556C24.9846 28 25.1179 27.77 25.2923 27.5655C25.4667 27.361 25.6821 27.1923 25.9385 27.0593C26.2051 26.9264 26.5179 26.86 26.8769 26.86C27.4718 26.86 27.8872 26.9775 28.1231 27.2127C28.359 27.4377 28.4769 27.7239 28.4769 28.0716C28.4769 28.2658 28.4359 28.4806 28.3538 28.7157C28.2821 28.9509 28.1692 29.1707 28.0154 29.3752C27.8615 29.5695 27.6615 29.7331 27.4154 29.866C27.1692 29.9989 26.8769 30.0654 26.5385 30.0654C25.9026 30.0654 25.4564 29.9682 25.2 29.774C24.9436 29.5695 24.8 29.3036 24.7692 28.9765ZM23.0769 32.4273C23.2513 32.141 23.4513 31.9365 23.6769 31.8138C23.9026 31.6911 24.1333 31.6297 24.3692 31.6297C24.759 31.6297 25.0923 31.7575 25.3692 32.0132C25.6564 32.2586 25.8 32.5755 25.8 32.9641C25.7897 33.0561 25.7744 33.1481 25.7538 33.2401C25.7436 33.3321 25.7128 33.4242 25.6615 33.5162C25.5179 33.782 25.4 34.007 25.3077 34.191C25.2154 34.375 25.1282 34.5489 25.0462 34.7125C24.9744 34.8658 24.9026 35.0192 24.8308 35.1726C24.759 35.3259 24.6718 35.51 24.5692 35.7247C24.4462 35.9803 24.3077 36.2615 24.1538 36.5682C24 36.8647 23.8513 37.1715 23.7077 37.4884C23.5744 37.8054 23.4564 38.1173 23.3538 38.424C23.2615 38.7307 23.2154 39.0119 23.2154 39.2675C23.2154 39.5436 23.2821 39.7276 23.4154 39.8197C23.559 39.9014 23.759 39.9423 24.0154 39.9423C24.3026 39.9423 24.6 39.881 24.9077 39.7583C25.2256 39.6356 25.5436 39.4771 25.8615 39.2829C26.1795 39.0886 26.4923 38.8688 26.8 38.6234C27.1077 38.3678 27.3949 38.1121 27.6615 37.8565C27.9385 37.6009 28.1897 37.3555 28.4154 37.1204C28.6513 36.8852 28.8462 36.6756 29 36.4915C29.2051 36.2973 29.4103 36.2001 29.6154 36.2001C29.8 36.2001 29.9487 36.2819 30.0615 36.4455C30.1846 36.6091 30.2462 36.8187 30.2462 37.0743C30.2462 37.3095 30.1846 37.56 30.0615 37.8259C29.9487 38.0917 29.759 38.3422 29.4923 38.5774C28.9692 39.109 28.4359 39.6203 27.8923 40.1111C27.3487 40.5916 26.7897 41.021 26.2154 41.3994C25.6513 41.7674 25.0821 42.064 24.5077 42.2889C23.9333 42.5138 23.3538 42.6263 22.7692 42.6263C21.9385 42.6263 21.2821 42.4167 20.8 41.9975C20.3282 41.5681 20.0923 40.9035 20.0923 40.0037C20.0923 39.5334 20.159 39.0733 20.2923 38.6234C20.4256 38.1735 20.5846 37.7389 20.7692 37.3197C20.9538 36.8903 21.1487 36.4813 21.3538 36.0928C21.559 35.694 21.7333 35.3157 21.8769 34.9579C21.9282 34.8249 22.0154 34.6204 22.1385 34.3444C22.2718 34.0683 22.4103 33.7871 22.5538 33.5008C22.7179 33.1634 22.8923 32.8056 23.0769 32.4273Z" fill="#E7DFDA"/>
<path d="M31.0308 37.8105C30.9179 38.0457 30.8051 38.3217 30.6923 38.6387C30.5897 38.9454 30.5385 39.2215 30.5385 39.4669C30.5385 39.6203 30.5692 39.743 30.6308 39.835C30.6923 39.927 30.8103 39.973 30.9846 39.973C31.2 39.973 31.4667 39.9117 31.7846 39.789C32.1128 39.6561 32.4615 39.4874 32.8308 39.2829C33.2103 39.0681 33.6 38.8279 34 38.562C34.4103 38.286 34.8154 38.0048 35.2154 37.7185C35.6154 37.422 35.9949 37.1306 36.3538 36.8443C36.7231 36.5478 37.0513 36.2768 37.3385 36.0314C37.4205 35.9599 37.5179 35.9087 37.6308 35.8781C37.7436 35.8474 37.841 35.8321 37.9231 35.8321C38.1282 35.8321 38.2974 35.9036 38.4308 36.0468C38.5641 36.1899 38.6308 36.3791 38.6308 36.6142C38.6308 36.829 38.559 37.0692 38.4154 37.3351C38.2718 37.6009 38.0205 37.8616 37.6615 38.1173C37.0051 38.7205 36.3436 39.2931 35.6769 39.835C35.0103 40.3769 34.3436 40.8574 33.6769 41.2767C33.0205 41.6856 32.3641 42.0128 31.7077 42.2582C31.0615 42.5036 30.4308 42.6263 29.8154 42.6263C29.3949 42.6263 29.041 42.5701 28.7538 42.4576C28.4769 42.3451 28.2513 42.1918 28.0769 41.9975C27.9128 41.8032 27.7949 41.5732 27.7231 41.3073C27.6513 41.0415 27.6154 40.7603 27.6154 40.4638C27.6154 39.9628 27.6872 39.4516 27.8308 38.9301C27.9846 38.3984 28.1641 37.9128 28.3692 37.4731C28.7282 36.6756 29.0923 35.8832 29.4615 35.0959C29.8308 34.3086 30.1692 33.5878 30.4769 32.9334L35.1385 23.0411C35.3231 22.6423 35.5692 22.3611 35.8769 22.1975C36.1949 22.0339 36.5128 21.9521 36.8308 21.9521C37.1487 21.9521 37.4359 22.0391 37.6923 22.2129C37.959 22.3867 38.0923 22.6679 38.0923 23.0564C38.0923 23.2404 38.0462 23.4347 37.9538 23.6392C37.8718 23.8437 37.7641 24.0635 37.6308 24.2987C37.3744 24.7793 37.0667 25.3672 36.7077 26.0624C36.359 26.7577 35.9795 27.5143 35.5692 28.3323C35.1692 29.1503 34.7538 30.004 34.3231 30.8936C33.9026 31.7729 33.4872 32.6318 33.0769 33.4702C32.6769 34.3086 32.2974 35.1061 31.9385 35.8627C31.5897 36.6091 31.2872 37.2584 31.0308 37.8105Z" fill="#E7DFDA"/>
<path d="M41.1538 33.7156C40.7744 34.4517 40.4154 35.1726 40.0769 35.8781C39.7385 36.5733 39.4205 37.2175 39.1231 37.8105C39 38.0559 38.8769 38.3422 38.7538 38.6694C38.641 38.9863 38.5846 39.2675 38.5846 39.5129C38.5846 39.6561 38.6154 39.7685 38.6769 39.8503C38.7487 39.9321 38.8615 39.973 39.0154 39.973C39.2308 39.973 39.5026 39.9117 39.8308 39.789C40.159 39.6561 40.5128 39.4874 40.8923 39.2829C41.2718 39.0681 41.6718 38.8279 42.0923 38.562C42.5128 38.286 42.9231 38.0048 43.3231 37.7185C43.7333 37.422 44.1231 37.1306 44.4923 36.8443C44.8615 36.5478 45.1897 36.2768 45.4769 36.0314C45.641 35.919 45.7949 35.8627 45.9385 35.8627C46.1128 35.8627 46.2564 35.9394 46.3692 36.0928C46.4821 36.2462 46.5385 36.4404 46.5385 36.6756C46.5385 36.9108 46.4821 37.151 46.3692 37.3964C46.2564 37.6418 46.0513 37.8821 45.7538 38.1173C45.0872 38.7205 44.4103 39.2931 43.7231 39.835C43.0462 40.3769 42.3692 40.8574 41.6923 41.2767C41.0256 41.6856 40.3641 42.0128 39.7077 42.2582C39.0513 42.5036 38.4154 42.6263 37.8 42.6263C37.3897 42.6263 37.0462 42.5701 36.7692 42.4576C36.4923 42.3554 36.2667 42.2122 36.0923 42.0282C35.9282 41.8339 35.8103 41.6141 35.7385 41.3687C35.6667 41.1131 35.6308 40.8421 35.6308 40.5558C35.6308 40.0446 35.7179 39.5129 35.8923 38.9608C36.0667 38.4087 36.2615 37.9128 36.4769 37.4731C36.7846 36.8392 37.0872 36.2104 37.3846 35.5867C37.6923 34.963 37.9897 34.3648 38.2769 33.7922H37.6154C37.041 33.7922 36.6462 33.7002 36.4308 33.5162C36.2154 33.3321 36.1077 33.1225 36.1077 32.8874C36.1077 32.7851 36.1385 32.6624 36.2 32.5193C36.2718 32.3659 36.3692 32.2279 36.4923 32.1052C36.6256 31.9723 36.7846 31.8598 36.9692 31.7678C37.1538 31.6758 37.3641 31.6297 37.6 31.6297H39.2615L42.5077 25.2036C42.7128 24.815 42.9641 24.539 43.2615 24.3754C43.5692 24.2016 43.8872 24.1147 44.2154 24.1147C44.5231 24.1147 44.8051 24.1965 45.0615 24.36C45.3179 24.5236 45.4462 24.7946 45.4462 25.1729C45.4462 25.3672 45.4 25.5665 45.3077 25.771C45.2256 25.9653 45.1128 26.1954 44.9692 26.4612C44.8769 26.635 44.7641 26.8446 44.6308 27.09C44.4974 27.3252 44.3538 27.5808 44.2 27.8569C44.0564 28.1227 43.9026 28.4039 43.7385 28.7004C43.5846 28.9969 43.4308 29.2832 43.2769 29.5593C42.9282 30.2136 42.559 30.9038 42.1692 31.6297H47.1846C47.4308 31.6297 47.6564 31.6451 47.8615 31.6758C48.0667 31.6962 48.241 31.7473 48.3846 31.8291C48.5385 31.9007 48.6564 32.0029 48.7385 32.1359C48.8205 32.2688 48.8615 32.4477 48.8615 32.6727C48.8615 32.7851 48.841 32.8976 48.8 33.0101C48.7692 33.1225 48.7026 33.2248 48.6 33.3168C48.5077 33.4088 48.3744 33.4855 48.2 33.5469C48.0359 33.6082 47.8205 33.6491 47.5538 33.6696L41.1538 33.7156Z" fill="#E7DFDA"/>
<path d="M52 40.1111C52 40.428 51.9385 40.7296 51.8154 41.0159C51.7026 41.3022 51.5436 41.5578 51.3385 41.7828C51.1436 41.9975 50.9128 42.1662 50.6462 42.2889C50.3795 42.4218 50.0974 42.4883 49.8 42.4883C49.5538 42.4883 49.3231 42.4372 49.1077 42.3349C48.8923 42.2429 48.7026 42.1151 48.5385 41.9515C48.3846 41.7879 48.2615 41.5987 48.1692 41.384C48.0769 41.1591 48.0308 40.9239 48.0308 40.6785C48.0308 40.3718 48.0872 40.0804 48.2 39.8043C48.3231 39.518 48.4872 39.2675 48.6923 39.0528C48.8974 38.8381 49.1385 38.6694 49.4154 38.5467C49.6923 38.4138 49.9897 38.3473 50.3077 38.3473C50.8103 38.3473 51.2154 38.516 51.5231 38.8534C51.841 39.1908 52 39.61 52 40.1111Z" fill="#E7DFDA"/>
</svg>
